<svg id="Layer_1" xmlns="http://www.w3.org/2000/svg" viewBox="0 0 2667 615"><style>.st0{fill:url(#SVGID_1_)}</style><linearGradient id="SVGID_1_" gradientUnits="userSpaceOnUse" x1="1333.5" y1="-.938" x2="1333.5" y2="615.938"><stop offset="0" stop-color="#545453"/><stop offset="1" stop-color="#191919"/></linearGradient><path class="st0" d="M2667 580.1V616H214.8c-1.5-.4-3-.9-4.6-1.1-47.4-6.1-79.5-31.6-94.9-76.8-3.9-11.5-5.2-24.3-5.3-36.5-.5-69.2-.2-138.4-.3-207.5-.1-34-23.6-57.7-57.5-58-14.9-.2-29.9 0-44.8 0-2.4 0-4.9-.2-7.4-.3V205c.8-.4 1-.6 1.1-.6 18.4-.1 36.8.1 55.1-.4 26.7-.7 49.2-20.3 52.3-46.8 1.8-15.4.9-31.2 1.2-46.8.6-34.3 13.7-62.9 39.9-85.1 22.2-18.8 48.2-26 77.2-26C782-.8 1337.1-.8 1892.1-.8c180.7 0 361.3-.1 542 .2 11.6 0 23.6 1 34.7 3.9 49.6 13.2 81.9 56.7 82 109.5.1 134.5 0 268.9 0 403.4 0 3.4-.6 7.1.2 10.3 2.3 9 3.8 18.7 8.3 26.5 10.9 19 28.9 26.6 50.4 26.7 19.2 0 38.2.2 57.3.4zm-512.1-1c2.2.3 3.1.5 4 .5 40 0 80 .5 120-.2 33.6-.6 56.2-24 56.2-57.8.1-143 .2-285.9-.2-428.9 0-8.7-1.8-18.1-5.5-25.9-10.8-22.7-29.9-31.8-54.8-31.8-635.8.1-1271.6.1-1907.4.1-2.5 0-5.1 0-7.6.1-29.6.8-53.3 24.2-53.9 53.7-.4 20.5-.4 40.9 0 61.4.5 28.9 23.7 52.4 52.6 53.5 11.9.4 23.9.2 35.9.2h21.2v32c-17.6 0-34.5-.1-51.5 0-35 .2-58.2 23.5-58.2 58.6-.1 75.4 0 150.8 0 226.2 0 4.3 0 8.8.8 13 5.3 28 27.6 45.8 57.8 45.9 46.2.1 92.4 0 138.6 0 2.2 0 4.4-.2 7.8-.4-2.2-2.8-3.7-4.8-5.2-6.7-14.9-19.4-23.2-41.2-23.3-65.7-.2-64.8-.1-129.6 0-194.5 0-20.7 6-40 17.5-57.2 23.2-34.9 56.4-51.3 98.1-51.3h561.3c1.8 0 3.7 0 5.5.1 62.7 2 109.4 49.4 109.7 112.2.3 62.3 0 124.6.1 186.9 0 27-8.4 50.9-25.3 71.9-.9 1.1-1.6 2.4-2.8 4.1h173.3c-1.1-1.6-1.7-2.6-2.4-3.4-18.2-22-26.2-47.3-26.1-75.8.3-60.7 0-121.4.2-182 0-8 .5-16.1 2.1-24 11.1-54.6 55.8-89.9 113.6-89.9 186.9-.1 373.7 0 560.6.1 7.8 0 15.7.3 23.3 1.7 55.6 10.3 92.6 54.8 92.7 111.9.2 61.4.1 122.7 0 184.1 0 6.9-.5 13.8-1.6 20.6-3.1 21.1-12.4 39.6-27.1 56.7zm-376.4.2c40.7 0 81.4.1 122 0 36.1-.1 59.1-23.1 59.2-59 .1-75.2.1-150.3 0-225.5 0-35.6-23.1-58.9-58.5-58.9-81.8-.1-163.6-.1-245.5 0-35.2 0-58.6 23.7-58.7 59-.1 75.2-.1 150.3.1 225.5 0 5.7.5 11.5 1.9 17 6.5 25.9 28 41.8 56.7 41.9 41 .1 81.9 0 122.8 0zm-909.6 0c40.9 0 81.8.1 122.7 0 35.9-.1 58.9-23.4 59-59.3V295.2c0-35.9-23.2-59.3-58.9-59.3-81.6-.1-163.2-.1-244.8 0-5.3 0-10.6.3-15.7 1.5-26.1 6-43.2 28-43.2 55.7-.1 75.4 0 150.8 0 226.2 0 36.8 23 59.9 59.7 60h121.2z"/></svg>